<?xml version="1.0" standalone="no"?>
<!DOCTYPE svg PUBLIC "-//W3C//DTD SVG 20010904//EN"
 "http://www.w3.org/TR/2001/REC-SVG-20010904/DTD/svg10.dtd">
<svg version="1.0" xmlns="http://www.w3.org/2000/svg"
 width="380.000000pt" height="380.000000pt" viewBox="0 0 380.000000 380.000000"
 preserveAspectRatio="xMidYMid meet">
<metadata>
Created by potrace 1.14, written by Peter Selinger 2001-2017
</metadata>
<g transform="translate(0.000000,380.000000) scale(0.100000,-0.100000)"
fill="#000000" stroke="none">
<path d="M423 3715 c-129 -28 -275 -131 -338 -240 -65 -110 -93 -241 -76 -353
7 -44 55 -183 132 -383 575 -1496 945 -2450 961 -2482 30 -60 85 -114 146
-144 47 -22 71 -27 137 -27 71 -1 88 3 147 32 44 21 79 48 101 75 86 107 643
927 673 991 59 123 78 275 53 410 -6 32 -39 139 -75 238 -35 99 -64 181 -64
183 0 1 111 5 248 8 184 4 262 9 306 21 94 26 186 80 252 149 72 74 715 973
746 1043 84 191 -32 426 -237 479 -52 13 -242 15 -1555 14 -1217 0 -1507 -3
-1557 -14z m2313 -440 c47 -28 88 -88 98 -145 14 -80 -50 -190 -127 -219 -45
-17 -124 -13 -165 8 -77 40 -112 97 -112 183 0 162 165 255 306 173z"/>
</g>
</svg>
