<svg xmlns="http://www.w3.org/2000/svg" xmlns:xlink="http://www.w3.org/1999/xlink" width="110" height="110" viewBox="0 0 115.04 110.15">
    <defs>
        <style>
            .cls-1{fill:none;}.cls-2{clip-path:url(#clip-path);}.cls-3{fill:#2b5c7e;}.cls-4{fill:#2a5c7e;}.cls-5{fill:#295d7d;}.cls-6{fill:#285d7d;}.cls-7{fill:#275d7d;}.cls-8{fill:#265e7c;}.cls-9{fill:#255e7c;}.cls-10{fill:#235e7c;}.cls-11{fill:#225f7b;}.cls-12{fill:#215f7b;}.cls-13{fill:#205f7b;}.cls-14{fill:#1f607a;}.cls-15{fill:#1e607a;}.cls-16{fill:#1e617b;}.cls-17{fill:#1f627c;}.cls-18{fill:#1f637d;}.cls-19{fill:#20647e;}.cls-20{fill:#20647f;}.cls-21{fill:#216580;}.cls-22{fill:#216681;}.cls-23{fill:#216782;}.cls-24{fill:#226883;}.cls-25{fill:#226984;}.cls-26{fill:#236a85;}.cls-27{fill:#236b86;}.cls-28{fill:#246b87;}.cls-29{fill:#246c88;}.cls-30{fill:#246d89;}.cls-31{fill:#256e8a;}.cls-32{fill:#256f8b;}.cls-33{fill:#26708c;}.cls-34{fill:#26718d;}.cls-35{fill:#27728e;}.cls-36{fill:#27728f;}.cls-37{fill:#277390;}.cls-38{fill:#287491;}.cls-39{fill:#287592;}.cls-40{fill:#297693;}.cls-41{fill:#297794;}.cls-42{fill:#2a7895;}.cls-43{fill:#2a7996;}.cls-44{fill:#2a7997;}.cls-45{fill:#2b7a98;}.cls-46{fill:#2b7b99;}.cls-47{fill:#2c7c9a;}.cls-48{fill:#2c7d9b;}.cls-49{fill:#2d7e9c;}.cls-50{fill:#2d7f9d;}.cls-51{fill:#2d809e;}.cls-52{fill:#2e809f;}.cls-53{fill:#2e81a0;}.cls-54{fill:#2f82a1;}.cls-55{fill:#2f83a2;}.cls-56{fill:#3084a3;}.cls-57{fill:#3085a4;}.cls-58{fill:#3086a5;}.cls-59{fill:#3187a6;}.cls-60{fill:#3187a8;}.cls-61{fill:#3288a9;}.cls-62{fill:#3289aa;}.cls-63{fill:#328aab;}.cls-64{fill:#338bac;}.cls-65{fill:#338cad;}.cls-66{fill:#348dae;}.cls-67{fill:#348eaf;}.cls-68{fill:#358eb0;}.cls-69{fill:#358fb1;}.cls-70{fill:#3590b2;}.cls-71{fill:#3691b3;}.cls-72{fill:#3692b4;}.cls-73{fill:#3793b5;}.cls-74{fill:#3794b6;}.cls-75{fill:#3895b7;}.cls-76{fill:#3895b8;}.cls-77{fill:#3896b9;}.cls-78{fill:#3997ba;}.cls-79{fill:#3998bb;}.cls-80{fill:#3a99bc;}.cls-81{fill:#3a9abd;}.cls-82{fill:#3b9bbe;}.cls-83{fill:#3b9cbf;}.cls-84{fill:#3b9cc0;}.cls-85{fill:#3c9dc1;}.cls-86{fill:#3c9ec2;}.cls-87{fill:#3d9fc3;}.cls-88{fill:#3da0c4;}.cls-89{fill:#3ea1c5;}.cls-90{fill:#3ea2c6;}.cls-91{fill:#3ea3c7;}.cls-92{fill:#3fa3c8;}.cls-93{fill:#3fa4c9;}.cls-94{fill:#40a5ca;}.cls-95{fill:#40a6cb;}.cls-96{fill:#41a7cc;}.cls-97{fill:#41a8cd;}.cls-98{fill:#41a9ce;}.cls-99{fill:#42aacf;}.cls-100{fill:#42aad0;}.cls-101{fill:#43abd1;}.cls-102{fill:#43acd2;}.cls-103{fill:#44add3;}.cls-104{fill:#44aed4;}.cls-105{opacity:0.85;}.cls-106{clip-path:url(#clip-path-2);}.cls-107{fill:#53a1d8;}.cls-108{fill:#53a2d9;}.cls-109{fill:#52a3da;}.cls-110{fill:#52a4da;}.cls-111{fill:#52a5db;}.cls-112{fill:#52a6dc;}.cls-113{fill:#51a7dd;}.cls-114{fill:#51a8de;}.cls-115{fill:#51a9de;}.cls-116{fill:#50aadf;}.cls-117{fill:#50abe0;}.cls-118{fill:#50ace1;}.cls-119{fill:#50aee2;}.cls-120{fill:#4fafe2;}.cls-121{fill:#4fb0e3;}.cls-122{fill:#4fb1e4;}.cls-123{fill:#4eb2e5;}.cls-124{fill:#4eb3e5;}.cls-125{fill:#4eb4e6;}.cls-126{fill:#4db5e7;}.cls-127{fill:#4db6e8;}.cls-128{fill:#4db7e9;}.cls-129{fill:#4db8e9;}.cls-130{fill:#4cb9ea;}.cls-131{fill:#4cbaeb;}.cls-132{fill:#4dbaea;}.cls-133{fill:#4ebae9;}.cls-134{fill:#4fbae8;}.cls-135{fill:#50bbe8;}.cls-136{fill:#51bbe7;}.cls-137{fill:#52bbe6;}.cls-138{fill:#53bbe5;}.cls-139{fill:#54bbe4;}.cls-140{fill:#55bbe3;}.cls-141{fill:#56bce2;}.cls-142{fill:#57bce1;}.cls-143{fill:#58bce1;}.cls-144{fill:#59bce0;}.cls-145{fill:#5abcdf;}.cls-146{fill:#5bbcde;}.cls-147{fill:#5cbcdd;}.cls-148{fill:#5dbddc;}.cls-149{fill:#5ebddb;}.cls-150{fill:#5fbddb;}.cls-151{fill:#60bdda;}.cls-152{fill:#61bdd9;}.cls-153{fill:#62bdd8;}.cls-154{fill:#63bed7;}.cls-155{fill:#64bed6;}.cls-156{fill:#65bed5;}.cls-157{fill:#66bed4;}.cls-158{fill:#67bed4;}.cls-159{fill:#68bed3;}.cls-160{fill:#69bfd2;}.cls-161{fill:#6abfd1;}.cls-162{fill:#6bbfd0;}.cls-163{fill:#6cbfcf;}.cls-164{fill:#6dbfce;}.cls-165{fill:#6ebfce;}.cls-166{fill:#6fbfcd;}.cls-167{fill:#70c0cc;}.cls-168{fill:#71c0cb;}.cls-169{fill:#72c0ca;}.cls-170{fill:#73c0c9;}.cls-171{fill:#74c0c8;}.cls-172{fill:#75c0c7;}.cls-173{fill:#76c1c7;}.cls-174{fill:#77c1c6;}.cls-175{fill:#78c1c5;}.cls-176{fill:#7ac1c4;}.cls-177{fill:#7bc1c3;}.cls-178{fill:#7cc1c2;}.cls-179{fill:#7dc1c1;}.cls-180{fill:#7ec2c1;}.cls-181{fill:#7fc2c0;}.cls-182{fill:#80c2bf;}.cls-183{fill:#81c2be;}.cls-184{fill:#82c2bd;}.cls-185{fill:#83c2bc;}.cls-186{fill:#84c3bb;}.cls-187{fill:#85c3ba;}.cls-188{fill:#86c3ba;}.cls-189{fill:#87c3b9;}.cls-190{fill:#88c3b8;}.cls-191{fill:#89c3b7;}.cls-192{fill:#8ac3b6;}.cls-193{fill:#8bc4b5;}.cls-194{fill:#8cc4b4;}.cls-195{fill:#8dc4b4;}.cls-196{fill:#8ec4b3;}.cls-197{fill:#8fc4b2;}.cls-198{fill:#90c4b1;}.cls-199{fill:#91c5b0;}.cls-200{fill:#92c5af;}.cls-201{fill:#93c5ae;}.cls-202{fill:#94c5ad;}.cls-203{fill:#95c5ad;}.cls-204{fill:#96c5ac;}.cls-205{fill:#97c6ab;}.cls-206{fill:#98c6aa;}.cls-207{fill:#99c6a9;}.cls-208{fill:#9ac6a8;}.cls-209{fill:#9bc6a7;}.cls-210{fill:#9cc6a7;}.cls-211{fill:#9dc6a6;}.cls-212{fill:#9ec7a5;}.cls-213{fill:#9fc7a4;}.cls-214{fill:#a0c7a3;}.cls-215{fill:#a1c7a2;}.cls-216{fill:#a2c7a1;}.cls-217{fill:#a3c7a0;}.cls-218{fill:#a4c8a0;}.cls-219{fill:#a5c89f;}.cls-220{fill:#a6c89e;}.cls-221{fill:#a7c89d;}.cls-222{fill:#e9e9e8;}.cls-223{fill:#231f20;}
        </style>
        <clipPath id="clip-path">
            <path class="cls-1"
                  d="M79.24,51.2H14.91L3.74,22.65A15.54,15.54,0,0,1,18.32,1.74H103A10.29,10.29,0,0,1,111.36,18L92.62,44.3A16.43,16.43,0,0,1,79.24,51.2Z"/>
        </clipPath>
        <clipPath id="clip-path-2">
            <path class="cls-1"
                  d="M68.15,78.76,50.89,103.84a9.5,9.5,0,0,1-16.7-2L3.74,22.65A15.56,15.56,0,0,1,18.11,1.74H73a48.72,48.72,0,0,0-8.51,2.4C57.7,6.88,54.26,15.51,56.75,22.43L70.49,60.7A20,20,0,0,1,68.15,78.76Z"/>
        </clipPath>
    </defs>
    <title>PySport Logo SVG</title>
    <g id="Layer_2" data-name="Layer 2">
        <g id="Layer_1-2" data-name="Layer 1">
            <g class="cls-2">
                <rect class="cls-3" y="1.74" width="2.77" height="49.46"/>
                <rect class="cls-3" x="2.77" y="1.74" width="6.03" height="49.46"/>
                <rect class="cls-4" x="8.79" y="1.74" width="6.03" height="49.46"/>
                <rect class="cls-5" x="14.82" y="1.74" width="6.03" height="49.46"/>
                <rect class="cls-6" x="20.85" y="1.74" width="6.03" height="49.46"/>
                <rect class="cls-7" x="26.87" y="1.74" width="6.03" height="49.46"/>
                <rect class="cls-8" x="32.9" y="1.74" width="6.03" height="49.46"/>
                <rect class="cls-9" x="38.93" y="1.74" width="6.03" height="49.46"/>
                <rect class="cls-10" x="44.95" y="1.74" width="6.03" height="49.46"/>
                <rect class="cls-11" x="50.98" y="1.74" width="6.03" height="49.46"/>
                <rect class="cls-12" x="57" y="1.74" width="6.03" height="49.46"/>
                <rect class="cls-13" x="63.03" y="1.74" width="6.03" height="49.46"/>
                <rect class="cls-14" x="69.06" y="1.74" width="6.03" height="49.46"/>
                <rect class="cls-15" x="75.08" y="1.74" width="6.03" height="49.46"/>
                <rect class="cls-15" x="81.11" y="1.74" width="0.36" height="49.46"/>
                <rect class="cls-16" x="81.47" y="1.74" width="0.36" height="49.46"/>
                <rect class="cls-17" x="81.83" y="1.74" width="0.36" height="49.46"/>
                <rect class="cls-18" x="82.18" y="1.74" width="0.36" height="49.46"/>
                <rect class="cls-19" x="82.54" y="1.74" width="0.36" height="49.46"/>
                <rect class="cls-20" x="82.9" y="1.74" width="0.36" height="49.46"/>
                <rect class="cls-21" x="83.26" y="1.74" width="0.36" height="49.46"/>
                <rect class="cls-22" x="83.61" y="1.74" width="0.36" height="49.46"/>
                <rect class="cls-23" x="83.97" y="1.74" width="0.36" height="49.46"/>
                <rect class="cls-24" x="84.33" y="1.74" width="0.36" height="49.46"/>
                <rect class="cls-25" x="84.69" y="1.74" width="0.36" height="49.46"/>
                <rect class="cls-26" x="85.04" y="1.74" width="0.36" height="49.46"/>
                <rect class="cls-27" x="85.4" y="1.74" width="0.36" height="49.46"/>
                <rect class="cls-28" x="85.76" y="1.74" width="0.36" height="49.46"/>
                <rect class="cls-29" x="86.11" y="1.74" width="0.36" height="49.46"/>
                <rect class="cls-30" x="86.47" y="1.74" width="0.36" height="49.46"/>
                <rect class="cls-31" x="86.83" y="1.74" width="0.36" height="49.46"/>
                <rect class="cls-32" x="87.19" y="1.74" width="0.36" height="49.46"/>
                <rect class="cls-33" x="87.54" y="1.74" width="0.36" height="49.46"/>
                <rect class="cls-34" x="87.9" y="1.74" width="0.36" height="49.46"/>
                <rect class="cls-35" x="88.26" y="1.74" width="0.36" height="49.46"/>
                <rect class="cls-36" x="88.62" y="1.74" width="0.36" height="49.46"/>
                <rect class="cls-37" x="88.97" y="1.74" width="0.36" height="49.46"/>
                <rect class="cls-38" x="89.33" y="1.74" width="0.36" height="49.46"/>
                <rect class="cls-39" x="89.69" y="1.74" width="0.36" height="49.46"/>
                <rect class="cls-40" x="90.05" y="1.74" width="0.36" height="49.46"/>
                <rect class="cls-41" x="90.4" y="1.74" width="0.36" height="49.46"/>
                <rect class="cls-42" x="90.76" y="1.74" width="0.36" height="49.46"/>
                <rect class="cls-43" x="91.12" y="1.74" width="0.36" height="49.46"/>
                <rect class="cls-44" x="91.48" y="1.74" width="0.36" height="49.46"/>
                <rect class="cls-45" x="91.83" y="1.74" width="0.36" height="49.46"/>
                <rect class="cls-46" x="92.19" y="1.74" width="0.36" height="49.46"/>
                <rect class="cls-47" x="92.55" y="1.74" width="0.36" height="49.46"/>
                <rect class="cls-48" x="92.91" y="1.74" width="0.36" height="49.46"/>
                <rect class="cls-49" x="93.26" y="1.74" width="0.36" height="49.46"/>
                <rect class="cls-50" x="93.62" y="1.74" width="0.36" height="49.46"/>
                <rect class="cls-51" x="93.98" y="1.74" width="0.36" height="49.46"/>
                <rect class="cls-52" x="94.34" y="1.74" width="0.36" height="49.46"/>
                <rect class="cls-53" x="94.69" y="1.74" width="0.36" height="49.46"/>
                <rect class="cls-54" x="95.05" y="1.74" width="0.36" height="49.46"/>
                <rect class="cls-55" x="95.41" y="1.74" width="0.36" height="49.46"/>
                <rect class="cls-56" x="95.77" y="1.74" width="0.36" height="49.46"/>
                <rect class="cls-57" x="96.12" y="1.74" width="0.36" height="49.46"/>
                <rect class="cls-58" x="96.48" y="1.74" width="0.36" height="49.46"/>
                <rect class="cls-59" x="96.84" y="1.74" width="0.36" height="49.46"/>
                <rect class="cls-60" x="97.2" y="1.74" width="0.36" height="49.46"/>
                <rect class="cls-61" x="97.55" y="1.74" width="0.36" height="49.46"/>
                <rect class="cls-62" x="97.91" y="1.74" width="0.36" height="49.46"/>
                <rect class="cls-63" x="98.27" y="1.74" width="0.36" height="49.46"/>
                <rect class="cls-64" x="98.63" y="1.74" width="0.36" height="49.46"/>
                <rect class="cls-65" x="98.98" y="1.74" width="0.36" height="49.46"/>
                <rect class="cls-66" x="99.34" y="1.74" width="0.36" height="49.46"/>
                <rect class="cls-67" x="99.7" y="1.74" width="0.36" height="49.46"/>
                <rect class="cls-68" x="100.06" y="1.74" width="0.36" height="49.46"/>
                <rect class="cls-69" x="100.41" y="1.74" width="0.36" height="49.46"/>
                <rect class="cls-70" x="100.77" y="1.74" width="0.36" height="49.46"/>
                <rect class="cls-71" x="101.13" y="1.74" width="0.36" height="49.46"/>
                <rect class="cls-72" x="101.49" y="1.74" width="0.36" height="49.46"/>
                <rect class="cls-73" x="101.84" y="1.74" width="0.36" height="49.46"/>
                <rect class="cls-74" x="102.2" y="1.74" width="0.36" height="49.46"/>
                <rect class="cls-75" x="102.56" y="1.74" width="0.36" height="49.46"/>
                <rect class="cls-76" x="102.92" y="1.74" width="0.36" height="49.46"/>
                <rect class="cls-77" x="103.27" y="1.74" width="0.36" height="49.46"/>
                <rect class="cls-78" x="103.63" y="1.74" width="0.36" height="49.46"/>
                <rect class="cls-79" x="103.99" y="1.74" width="0.36" height="49.46"/>
                <rect class="cls-80" x="104.35" y="1.74" width="0.36" height="49.46"/>
                <rect class="cls-81" x="104.7" y="1.74" width="0.36" height="49.46"/>
                <rect class="cls-82" x="105.06" y="1.74" width="0.36" height="49.46"/>
                <rect class="cls-83" x="105.42" y="1.74" width="0.36" height="49.46"/>
                <rect class="cls-84" x="105.78" y="1.74" width="0.36" height="49.46"/>
                <rect class="cls-85" x="106.13" y="1.74" width="0.36" height="49.46"/>
                <rect class="cls-86" x="106.49" y="1.74" width="0.36" height="49.46"/>
                <rect class="cls-87" x="106.85" y="1.74" width="0.36" height="49.46"/>
                <rect class="cls-88" x="107.21" y="1.74" width="0.36" height="49.46"/>
                <rect class="cls-89" x="107.56" y="1.74" width="0.36" height="49.46"/>
                <rect class="cls-90" x="107.92" y="1.74" width="0.36" height="49.46"/>
                <rect class="cls-91" x="108.28" y="1.74" width="0.36" height="49.46"/>
                <rect class="cls-92" x="108.64" y="1.74" width="0.36" height="49.46"/>
                <rect class="cls-93" x="108.99" y="1.74" width="0.36" height="49.46"/>
                <rect class="cls-94" x="109.35" y="1.74" width="0.36" height="49.46"/>
                <rect class="cls-95" x="109.71" y="1.74" width="0.36" height="49.46"/>
                <rect class="cls-96" x="110.06" y="1.74" width="0.36" height="49.46"/>
                <rect class="cls-97" x="110.42" y="1.74" width="0.36" height="49.46"/>
                <rect class="cls-98" x="110.78" y="1.74" width="0.36" height="49.46"/>
                <rect class="cls-99" x="111.14" y="1.74" width="0.36" height="49.46"/>
                <rect class="cls-100" x="111.49" y="1.74" width="0.36" height="49.46"/>
                <rect class="cls-101" x="111.85" y="1.74" width="0.36" height="49.46"/>
                <rect class="cls-102" x="112.21" y="1.74" width="0.36" height="49.46"/>
                <rect class="cls-103" x="112.57" y="1.74" width="0.36" height="49.46"/>
                <rect class="cls-104" x="112.92" y="1.74" width="0.36" height="49.46"/>
                <rect class="cls-104" x="113.28" y="1.74" width="2.92" height="49.46"/>
            </g>
            <g class="cls-105">
                <g class="cls-106">
                    <path class="cls-107" d="M73,1.74h0Z"/>
                    <rect class="cls-107" x="0.03" y="1.74" width="73" height="3.01"/>
                    <rect class="cls-108" x="0.03" y="4.75" width="73" height="3.01"/>
                    <rect class="cls-109" x="0.03" y="7.76" width="73" height="3.01"/>
                    <rect class="cls-110" x="0.03" y="10.78" width="73" height="3.01"/>
                    <rect class="cls-111" x="0.03" y="13.79" width="73" height="3.01"/>
                    <rect class="cls-112" x="0.03" y="16.8" width="73" height="3.01"/>
                    <rect class="cls-113" x="0.03" y="19.81" width="73" height="3.01"/>
                    <rect class="cls-114" x="0.03" y="22.82" width="73" height="3.01"/>
                    <rect class="cls-115" x="0.03" y="25.83" width="73" height="3.01"/>
                    <rect class="cls-116" x="0.03" y="28.85" width="73" height="3.01"/>
                    <rect class="cls-117" x="0.03" y="31.86" width="73" height="3.01"/>
                    <rect class="cls-118" x="0.03" y="34.87" width="73" height="3.01"/>
                    <rect class="cls-119" x="0.03" y="37.88" width="73" height="3.01"/>
                    <rect class="cls-120" x="0.03" y="40.89" width="73" height="3.01"/>
                    <rect class="cls-121" x="0.03" y="43.9" width="73" height="3.01"/>
                    <rect class="cls-122" x="0.03" y="46.92" width="73" height="3.01"/>
                    <rect class="cls-123" x="0.03" y="49.93" width="73" height="3.01"/>
                    <rect class="cls-124" x="0.03" y="52.94" width="73" height="3.01"/>
                    <rect class="cls-125" x="0.03" y="55.95" width="73" height="3.01"/>
                    <rect class="cls-126" x="0.03" y="58.96" width="73" height="3.01"/>
                    <rect class="cls-127" x="0.03" y="61.98" width="73" height="3.01"/>
                    <rect class="cls-128" x="0.03" y="64.99" width="73" height="3.01"/>
                    <rect class="cls-129" x="0.03" y="68" width="73" height="3.01"/>
                    <rect class="cls-130" x="0.03" y="71.01" width="73" height="3.01"/>
                    <rect class="cls-131" x="0.03" y="74.02" width="73" height="3.01"/>
                    <rect class="cls-131" x="0.03" y="77.03" width="73" height="0.34"/>
                    <rect class="cls-132" x="0.03" y="77.37" width="73" height="0.34"/>
                    <rect class="cls-133" x="0.03" y="77.71" width="73" height="0.34"/>
                    <rect class="cls-134" x="0.03" y="78.05" width="73" height="0.34"/>
                    <rect class="cls-135" x="0.03" y="78.39" width="73" height="0.34"/>
                    <rect class="cls-136" x="0.03" y="78.73" width="73" height="0.34"/>
                    <rect class="cls-137" x="0.03" y="79.07" width="73" height="0.34"/>
                    <rect class="cls-138" x="0.03" y="79.41" width="73" height="0.34"/>
                    <rect class="cls-139" x="0.03" y="79.75" width="73" height="0.34"/>
                    <rect class="cls-140" x="0.03" y="80.09" width="73" height="0.34"/>
                    <rect class="cls-141" x="0.03" y="80.43" width="73" height="0.34"/>
                    <rect class="cls-142" x="0.03" y="80.77" width="73" height="0.34"/>
                    <rect class="cls-143" x="0.03" y="81.11" width="73" height="0.34"/>
                    <rect class="cls-144" x="0.03" y="81.45" width="73" height="0.34"/>
                    <rect class="cls-145" x="0.03" y="81.79" width="73" height="0.34"/>
                    <rect class="cls-146" x="0.03" y="82.13" width="73" height="0.34"/>
                    <rect class="cls-147" x="0.03" y="82.47" width="73" height="0.34"/>
                    <rect class="cls-148" x="0.03" y="82.81" width="73" height="0.34"/>
                    <rect class="cls-149" x="0.03" y="83.15" width="73" height="0.34"/>
                    <rect class="cls-150" x="0.03" y="83.49" width="73" height="0.34"/>
                    <rect class="cls-151" x="0.03" y="83.83" width="73" height="0.34"/>
                    <rect class="cls-152" x="0.03" y="84.17" width="73" height="0.34"/>
                    <rect class="cls-153" x="0.03" y="84.51" width="73" height="0.34"/>
                    <rect class="cls-154" x="0.03" y="84.85" width="73" height="0.34"/>
                    <rect class="cls-155" x="0.03" y="85.19" width="73" height="0.34"/>
                    <rect class="cls-156" x="0.03" y="85.53" width="73" height="0.34"/>
                    <rect class="cls-157" x="0.03" y="85.87" width="73" height="0.34"/>
                    <rect class="cls-158" x="0.03" y="86.21" width="73" height="0.34"/>
                    <rect class="cls-159" x="0.03" y="86.55" width="73" height="0.34"/>
                    <rect class="cls-160" x="0.03" y="86.89" width="73" height="0.34"/>
                    <rect class="cls-161" x="0.03" y="87.23" width="73" height="0.34"/>
                    <rect class="cls-162" x="0.03" y="87.57" width="73" height="0.34"/>
                    <rect class="cls-163" x="0.03" y="87.91" width="73" height="0.34"/>
                    <rect class="cls-164" x="0.03" y="88.25" width="73" height="0.34"/>
                    <rect class="cls-165" x="0.03" y="88.59" width="73" height="0.34"/>
                    <rect class="cls-166" x="0.03" y="88.93" width="73" height="0.34"/>
                    <rect class="cls-167" x="0.03" y="89.27" width="73" height="0.34"/>
                    <rect class="cls-168" x="0.03" y="89.61" width="73" height="0.34"/>
                    <rect class="cls-169" x="0.03" y="89.95" width="73" height="0.34"/>
                    <rect class="cls-170" x="0.03" y="90.29" width="73" height="0.34"/>
                    <rect class="cls-171" x="0.03" y="90.63" width="73" height="0.34"/>
                    <rect class="cls-172" x="0.03" y="90.97" width="73" height="0.34"/>
                    <rect class="cls-173" x="0.03" y="91.31" width="73" height="0.34"/>
                    <rect class="cls-174" x="0.03" y="91.64" width="73" height="0.34"/>
                    <rect class="cls-175" x="0.03" y="91.98" width="73" height="0.34"/>
                    <rect class="cls-176" x="0.03" y="92.32" width="73" height="0.34"/>
                    <rect class="cls-177" x="0.03" y="92.66" width="73" height="0.34"/>
                    <rect class="cls-178" x="0.03" y="93" width="73" height="0.34"/>
                    <rect class="cls-179" x="0.03" y="93.34" width="73" height="0.34"/>
                    <rect class="cls-180" x="0.03" y="93.68" width="73" height="0.34"/>
                    <rect class="cls-181" x="0.03" y="94.02" width="73" height="0.34"/>
                    <rect class="cls-182" x="0.03" y="94.36" width="73" height="0.34"/>
                    <rect class="cls-183" x="0.03" y="94.7" width="73" height="0.34"/>
                    <rect class="cls-184" x="0.03" y="95.04" width="73" height="0.34"/>
                    <rect class="cls-185" x="0.03" y="95.38" width="73" height="0.34"/>
                    <rect class="cls-186" x="0.03" y="95.72" width="73" height="0.34"/>
                    <rect class="cls-187" x="0.03" y="96.06" width="73" height="0.34"/>
                    <rect class="cls-188" x="0.03" y="96.4" width="73" height="0.34"/>
                    <rect class="cls-189" x="0.03" y="96.74" width="73" height="0.34"/>
                    <rect class="cls-190" x="0.03" y="97.08" width="73" height="0.34"/>
                    <rect class="cls-191" x="0.03" y="97.42" width="73" height="0.34"/>
                    <rect class="cls-192" x="0.03" y="97.76" width="73" height="0.34"/>
                    <rect class="cls-193" x="0.03" y="98.1" width="73" height="0.34"/>
                    <rect class="cls-194" x="0.03" y="98.44" width="73" height="0.34"/>
                    <rect class="cls-195" x="0.03" y="98.78" width="73" height="0.34"/>
                    <rect class="cls-196" x="0.03" y="99.12" width="73" height="0.34"/>
                    <rect class="cls-197" x="0.03" y="99.46" width="73" height="0.34"/>
                    <rect class="cls-198" x="0.03" y="99.8" width="73" height="0.34"/>
                    <rect class="cls-199" x="0.03" y="100.14" width="73" height="0.34"/>
                    <rect class="cls-200" x="0.03" y="100.48" width="73" height="0.34"/>
                    <rect class="cls-201" x="0.03" y="100.82" width="73" height="0.34"/>
                    <rect class="cls-202" x="0.03" y="101.16" width="73" height="0.34"/>
                    <rect class="cls-203" x="0.03" y="101.5" width="73" height="0.34"/>
                    <rect class="cls-204" x="0.03" y="101.84" width="73" height="0.34"/>
                    <rect class="cls-205" x="0.03" y="102.18" width="73" height="0.34"/>
                    <rect class="cls-206" x="0.03" y="102.52" width="73" height="0.34"/>
                    <rect class="cls-207" x="0.03" y="102.86" width="73" height="0.34"/>
                    <rect class="cls-208" x="0.03" y="103.2" width="73" height="0.34"/>
                    <rect class="cls-209" x="0.03" y="103.54" width="73" height="0.34"/>
                    <rect class="cls-210" x="0.03" y="103.88" width="73" height="0.34"/>
                    <rect class="cls-211" x="0.03" y="104.22" width="73" height="0.34"/>
                    <rect class="cls-212" x="0.03" y="104.56" width="73" height="0.34"/>
                    <rect class="cls-213" x="0.03" y="104.9" width="73" height="0.34"/>
                    <rect class="cls-214" x="0.03" y="105.24" width="73" height="0.34"/>
                    <rect class="cls-215" x="0.03" y="105.58" width="73" height="0.34"/>
                    <rect class="cls-216" x="0.03" y="105.92" width="73" height="0.34"/>
                    <rect class="cls-217" x="0.03" y="106.26" width="73" height="0.34"/>
                    <rect class="cls-218" x="0.03" y="106.6" width="73" height="0.34"/>
                    <rect class="cls-219" x="0.03" y="106.93" width="73" height="0.34"/>
                    <rect class="cls-220" x="0.03" y="107.27" width="73" height="0.34"/>
                    <rect class="cls-221" x="0.03" y="107.61" width="73" height="0.34"/>
                    <rect class="cls-221" x="0.03" y="107.95" width="73" height="2.19"/>
                </g>
            </g>
            <circle class="cls-222" cx="79.23" cy="19.94" r="6.1"/>
            </g>
    </g>
</svg>